<svg width="320" height="80" viewBox="0 0 320 80" fill="none" xmlns="http://www.w3.org/2000/svg">
  <defs>
    <linearGradient id="bc-grad-l" x1="0" y1="0" x2="0.5" y2="1">
      <stop offset="0%" stop-color="#2563eb"/>
      <stop offset="100%" stop-color="#1a2744"/>
    </linearGradient>
    <linearGradient id="bc-accent-l" x1="0" y1="0" x2="1" y2="1">
      <stop offset="0%" stop-color="#3b82f6"/>
      <stop offset="100%" stop-color="#60a5fa"/>
    </linearGradient>
  </defs>
  <g transform="translate(2, 4) scale(0.6)">
    <path d="M50 2 L92 16 C96 17.5 98 21 98 25 L98 55 C98 75 78 95 50 115 C22 95 2 75 2 55 L2 25 C2 21 4 17.5 8 16 Z" fill="url(#bc-grad-l)"/>
    <path d="M50 10 L86 22 C88 23 90 25.5 90 28 L90 54 C90 70 74 87 50 105 C26 87 10 70 10 54 L10 28 C10 25.5 12 23 14 22 Z" fill="white" fill-opacity="0.07" stroke="white" stroke-width="1" stroke-opacity="0.2"/>
    <path d="M24 40 L24 80 L40 80 C46 80 50 76.5 50 72 C50 68 47.5 65.5 44 64.5 C46.5 63.5 48.5 60.5 48.5 57.5 C48.5 53 45 50 40 50 L24 50 Z M32 54 L39 54 C41.5 54 43 55.5 43 57.5 C43 59.5 41.5 61 39 61 L32 61 Z M32 65 L40 65 C43 65 44.5 67 44.5 69.5 C44.5 72 43 74 40 74 L32 74 Z" fill="white" fill-rule="evenodd"/>
    <path d="M72 54 C68 50.5 63 49 58 50 C51 52 47 58 48 65 C49 72 54 77.5 61 78 C66 78.5 70.5 76 74 72" fill="none" stroke="url(#bc-accent-l)" stroke-width="6" stroke-linecap="round"/>
  </g>
  <text x="82" y="35" font-family="system-ui, -apple-system, sans-serif" font-weight="700" font-size="32" fill="#ffffff" letter-spacing="-0.5">Bit<tspan fill="url(#bc-grad-l)">Corp</tspan></text>
  <text x="82" y="55" font-family="system-ui, -apple-system, sans-serif" font-weight="500" font-size="11" fill="#94a3b8" letter-spacing="2.5">BUSINESS ACCELERATOR</text>
</svg>
