<svg width="340" height="80" viewBox="0 0 340 80" fill="none" xmlns="http://www.w3.org/2000/svg">
  <defs>
    <linearGradient id="bc-grad-l" x1="0" y1="0" x2="1" y2="1">
      <stop offset="0%" stop-color="#1a2744"/>
      <stop offset="100%" stop-color="#2563eb"/>
    </linearGradient>
    <linearGradient id="bc-accent-l" x1="0" y1="0" x2="1" y2="1">
      <stop offset="0%" stop-color="#3b82f6"/>
      <stop offset="100%" stop-color="#60a5fa"/>
    </linearGradient>
  </defs>
  <g transform="translate(-2, 2) scale(0.75)">
    <path d="M18 5 L90 5 C103 5 112 14 112 27 L112 73 C112 86 103 95 90 95 L18 95 C14 95 12 93 12 89 L12 62 L0 50 L12 38 L12 11 C12 7 14 5 18 5 Z" fill="url(#bc-grad-l)"/>
    <path d="M24 13 L86 13 C95 13 102 20 102 29 L102 71 C102 80 95 87 86 87 L24 87 C22 87 20 85 20 83 L20 62 L10 50 L20 38 L20 17 C20 15 22 13 24 13 Z" fill="white" fill-opacity="0.08" stroke="white" stroke-width="1.2" stroke-opacity="0.18"/>
    <path d="M28 35 L28 65 L40 65 C44.5 65 47.5 62.5 47.5 59 C47.5 56 45.5 54 43 53 C45 52 46.5 49.5 46.5 47 C46.5 43.5 43.5 41 40 41 L28 41 Z M34 44 L39 44 C41 44 42.5 45.5 42.5 47 C42.5 48.5 41 50 39 50 L34 50 Z M34 53 L40 53 C42.2 53 43.5 54.8 43.5 56.5 C43.5 58.5 42 60 40 60 L34 60 Z" fill="white" fill-rule="evenodd"/>
    <g transform="translate(55,34)">
      <path d="M22 2 C14 -1 5 2 2 10 C-2 18 0 27 6 32 C12 37 21 36 27 31" fill="none" stroke="url(#bc-accent-l)" stroke-width="5.5" stroke-linecap="round"/>
      <path d="M27 31 C32 27 35 21 35 15 C35 8 31 2 25 -1" fill="none" stroke="white" stroke-width="3" stroke-linecap="round" stroke-opacity="0.7"/>
      <path d="M28 -6 L24 0 L18 -3" fill="none" stroke="white" stroke-width="3" stroke-linecap="round" stroke-linejoin="round" stroke-opacity="0.85"/>
    </g>
  </g>
  <text x="92" y="35" font-family="system-ui, -apple-system, sans-serif" font-weight="700" font-size="32" fill="#ffffff" letter-spacing="-0.5">Bit<tspan fill="url(#bc-grad-l)">Corp</tspan></text>
  <text x="92" y="55" font-family="system-ui, -apple-system, sans-serif" font-weight="500" font-size="11" fill="#94a3b8" letter-spacing="2.5">BUSINESS ACCELERATOR</text>
</svg>
