<svg width="340" height="80" viewBox="0 0 340 80" fill="none" xmlns="http://www.w3.org/2000/svg">
  <defs>
    <linearGradient id="bc-grad-l" x1="0" y1="0" x2="1" y2="1">
      <stop offset="0%" stop-color="#3b82f6"/>
      <stop offset="100%" stop-color="#60a5fa"/>
    </linearGradient>
    <linearGradient id="bc-accent-l" x1="0" y1="0" x2="1" y2="1">
      <stop offset="0%" stop-color="#60a5fa"/>
      <stop offset="100%" stop-color="#93c5fd"/>
    </linearGradient>
  </defs>
  <g transform="translate(0,0) scale(0.8)">
    <path d="M8 10 L8 80 C8 90 14 95 22 95 L72 95 C85 95 92 88 92 75 L92 25 C92 12 85 5 72 5 L22 5 C14 5 8 10 8 20 Z" fill="url(#bc-grad-l)"/>
    <path d="M0 50 L16 38 L16 20 C16 13 20 10 26 10 L72 10 C82 10 87 15 87 25 L87 75 C87 85 82 90 72 90 L26 90 C20 90 16 87 16 80 L16 62 Z" fill="url(#bc-grad-l)"/>
    <path d="M22 18 L72 18 C78 18 82 22 82 28 L82 72 C82 78 78 82 72 82 L22 82 C18 82 22 78 22 72 Z" fill="white" fill-opacity="0.08"/>
    <path d="M24 20 L70 20 C76 20 80 24 80 30 L80 70 C80 76 76 80 70 80 L24 80 C20 80 24 76 24 70 Z" fill="none" stroke="white" stroke-width="1.5" stroke-opacity="0.2"/>
    <path d="M28 34 L28 66 L42 66 C47 66 50.5 63 50.5 59 C50.5 55.5 48.5 53 45.5 52 C47.8 51 49.5 48.5 49.5 46 C49.5 42 46 39 42 39 L38 39 L28 39 Z M35 43 L41 43 C43.5 43 45 44.5 45 46.5 C45 48.5 43.5 50 41 50 L35 50 Z M35 54 L42 54 C44.8 54 46.5 55.8 46.5 58 C46.5 60.2 44.8 62 42 62 L35 62 Z" fill="white" fill-rule="evenodd"/>
    <g transform="translate(54,38)">
      <path d="M18 0 C8 0 0 7 0 16 C0 25 8 32 18 32 C23 32 27.5 30 30.5 26.5" fill="none" stroke="url(#bc-accent-l)" stroke-width="5" stroke-linecap="round"/>
      <path d="M32 8 C28 2 23 -1 17 -1 C7 -1 -1 7 -1 16" fill="none" stroke="white" stroke-width="2.5" stroke-linecap="round" stroke-opacity="0.5"/>
      <path d="M29 2 L33 8 L26 9" fill="none" stroke="white" stroke-width="2.5" stroke-linecap="round" stroke-linejoin="round" stroke-opacity="0.6"/>
      <path d="M2 25 C6 31 12 34 18 34 C28 34 35 26 35 17" fill="none" stroke="white" stroke-width="2.5" stroke-linecap="round" stroke-opacity="0.5"/>
      <path d="M5 31 L1 25 L8 24" fill="none" stroke="white" stroke-width="2.5" stroke-linecap="round" stroke-linejoin="round" stroke-opacity="0.6"/>
    </g>
  </g>
  <text x="88" y="35" font-family="system-ui, -apple-system, sans-serif" font-weight="700" font-size="32" fill="#ffffff" letter-spacing="-0.5">Bit<tspan fill="url(#bc-grad-l)">Corp</tspan></text>
  <text x="88" y="55" font-family="system-ui, -apple-system, sans-serif" font-weight="500" font-size="11" fill="#94a3b8" letter-spacing="2.5">BUSINESS ACCELERATOR</text>
</svg>
